<svg width="512" height="512" viewBox="0 0 512 512" fill="none" xmlns="http://www.w3.org/2000/svg">
  <title>Biliran Province State University Logo</title>
  <defs>
    <path id="topArc" d="M 82 256 A 174 174 0 0 1 430 256" />
    <path id="bottomArc" d="M 430 256 A 174 174 0 0 1 82 256" />
    <linearGradient id="greenRing" x1="96" y1="92" x2="416" y2="420" gradientUnits="userSpaceOnUse">
      <stop stop-color="#0b49d8" />
      <stop offset="1" stop-color="#021d84" />
    </linearGradient>
    <linearGradient id="goldFlame" x1="226" y1="128" x2="288" y2="226" gradientUnits="userSpaceOnUse">
      <stop stop-color="#ffd24d" />
      <stop offset="1" stop-color="#f47c20" />
    </linearGradient>
  </defs>
  <circle cx="256" cy="256" r="244" fill="#ffffff" />
  <circle cx="256" cy="256" r="234" fill="url(#greenRing)" />
  <circle cx="256" cy="256" r="199" fill="#f7c948" />
  <circle cx="256" cy="256" r="178" fill="#f8fbff" stroke="#1230a3" stroke-width="8" />

  <g fill="#f7c948" font-family="Arial, Helvetica, sans-serif" font-weight="700" letter-spacing="3">
    <text font-size="26">
      <textPath href="#topArc" startOffset="50%" text-anchor="middle">BILIRAN PROVINCE STATE UNIVERSITY</textPath>
    </text>
    <text font-size="24">
      <textPath href="#bottomArc" startOffset="50%" text-anchor="middle">NAVAL, BILIRAN</textPath>
    </text>
  </g>

  <g transform="translate(144 126)">
    <path d="M112 0 C138 32 150 62 146 90 C143 119 127 139 112 154 C96 139 81 119 78 90 C75 62 86 32 112 0Z" fill="url(#goldFlame)" stroke="#1230a3" stroke-width="6" />
    <path d="M112 40 C126 62 132 82 128 101 C125 118 117 130 112 136 C106 130 98 118 96 101 C92 82 98 62 112 40Z" fill="#d71920" />

    <path d="M38 136 C65 119 93 119 112 138 C131 119 159 119 186 136 V226 C156 211 130 213 112 232 C94 213 68 211 38 226 V136Z" fill="#ffffff" stroke="#1230a3" stroke-width="8" stroke-linejoin="round" />
    <path d="M112 138 V232" stroke="#1230a3" stroke-width="6" stroke-linecap="round" />
    <path d="M58 158 C78 150 94 154 104 166" stroke="#1230a3" stroke-width="5" stroke-linecap="round" />
    <path d="M58 184 C78 176 94 180 104 192" stroke="#1230a3" stroke-width="5" stroke-linecap="round" />
    <path d="M166 158 C146 150 130 154 120 166" stroke="#1230a3" stroke-width="5" stroke-linecap="round" />
    <path d="M166 184 C146 176 130 180 120 192" stroke="#1230a3" stroke-width="5" stroke-linecap="round" />
  </g>

  <g stroke="#1230a3" stroke-width="8" stroke-linecap="round">
    <path d="M151 378 H361" />
    <path d="M186 398 H326" />
  </g>
  <text x="256" y="418" text-anchor="middle" fill="#1230a3" font-family="Arial, Helvetica, sans-serif" font-size="38" font-weight="800">1945</text>
</svg>
